<mxfile host="app.diagrams.net" modified="2024-06-07T14:38:46.981Z" agent="Mozilla/5.0 (Windows NT 10.0; Win64; x64; rv:126.0) Gecko/20100101 Firefox/126.0" etag="7hu1gUZ-7ytV3jJkh7Qt" version="24.5.2" type="device">
  <diagram name="Strona-1" id="RHbj8s2q66IXRMpl_B63">
    <mxGraphModel dx="1434" dy="754" grid="1" gridSize="10" guides="1" tooltips="1" connect="1" arrows="1" fold="1" page="1" pageScale="1" pageWidth="827" pageHeight="1169" math="0" shadow="0">
      <root>
        <mxCell id="0" />
        <mxCell id="1" parent="0" />
        <mxCell id="0tsyYjLDVzbnpsHi3FdE-1" value="Mikrokontroler" style="rounded=0;whiteSpace=wrap;html=1;" vertex="1" parent="1">
          <mxGeometry x="560" y="260" width="160" height="100" as="geometry" />
        </mxCell>
        <mxCell id="0tsyYjLDVzbnpsHi3FdE-3" value="Monitorowana roślina" style="shape=cube;whiteSpace=wrap;html=1;boundedLbl=1;backgroundOutline=1;darkOpacity=0.05;darkOpacity2=0.1;" vertex="1" parent="1">
          <mxGeometry x="340" y="470" width="120" height="80" as="geometry" />
        </mxCell>
        <mxCell id="0tsyYjLDVzbnpsHi3FdE-4" value="&lt;div&gt;Czujniki:&lt;/div&gt;&lt;div&gt;- Temperatury powietrza&lt;br&gt;&lt;/div&gt;&lt;div&gt;- Wilgotności powietrza&lt;/div&gt;&lt;div&gt;- Wilgotności gleby&lt;br&gt;&lt;/div&gt;&lt;div&gt;&lt;br&gt;&lt;/div&gt;" style="rounded=0;whiteSpace=wrap;html=1;" vertex="1" parent="1">
          <mxGeometry x="560" y="470" width="160" height="100" as="geometry" />
        </mxCell>
        <mxCell id="0tsyYjLDVzbnpsHi3FdE-5" value="" style="endArrow=classic;html=1;rounded=0;exitX=0;exitY=0;exitDx=120;exitDy=50;exitPerimeter=0;entryX=0;entryY=0.5;entryDx=0;entryDy=0;" edge="1" parent="1" source="0tsyYjLDVzbnpsHi3FdE-3" target="0tsyYjLDVzbnpsHi3FdE-4">
          <mxGeometry width="50" height="50" relative="1" as="geometry">
            <mxPoint x="500" y="370" as="sourcePoint" />
            <mxPoint x="550" y="320" as="targetPoint" />
          </mxGeometry>
        </mxCell>
        <mxCell id="0tsyYjLDVzbnpsHi3FdE-6" value="" style="endArrow=classic;html=1;rounded=0;entryX=0.5;entryY=1;entryDx=0;entryDy=0;exitX=0.5;exitY=0;exitDx=0;exitDy=0;" edge="1" parent="1" source="0tsyYjLDVzbnpsHi3FdE-4" target="0tsyYjLDVzbnpsHi3FdE-1">
          <mxGeometry width="50" height="50" relative="1" as="geometry">
            <mxPoint x="610" y="430" as="sourcePoint" />
            <mxPoint x="650" y="370" as="targetPoint" />
          </mxGeometry>
        </mxCell>
        <mxCell id="0tsyYjLDVzbnpsHi3FdE-7" value="Pompa wody" style="rounded=0;whiteSpace=wrap;html=1;" vertex="1" parent="1">
          <mxGeometry x="330" y="280" width="120" height="60" as="geometry" />
        </mxCell>
        <mxCell id="0tsyYjLDVzbnpsHi3FdE-8" value="" style="endArrow=classic;html=1;rounded=0;exitX=0.5;exitY=1;exitDx=0;exitDy=0;entryX=0;entryY=0;entryDx=50;entryDy=0;entryPerimeter=0;" edge="1" parent="1" source="0tsyYjLDVzbnpsHi3FdE-7" target="0tsyYjLDVzbnpsHi3FdE-3">
          <mxGeometry width="50" height="50" relative="1" as="geometry">
            <mxPoint x="500" y="370" as="sourcePoint" />
            <mxPoint x="550" y="320" as="targetPoint" />
          </mxGeometry>
        </mxCell>
        <mxCell id="0tsyYjLDVzbnpsHi3FdE-9" value="" style="endArrow=classic;html=1;rounded=0;exitX=0;exitY=0.5;exitDx=0;exitDy=0;entryX=1;entryY=0.5;entryDx=0;entryDy=0;" edge="1" parent="1" source="0tsyYjLDVzbnpsHi3FdE-1" target="0tsyYjLDVzbnpsHi3FdE-7">
          <mxGeometry width="50" height="50" relative="1" as="geometry">
            <mxPoint x="500" y="370" as="sourcePoint" />
            <mxPoint x="550" y="320" as="targetPoint" />
          </mxGeometry>
        </mxCell>
        <mxCell id="0tsyYjLDVzbnpsHi3FdE-11" value="Eksportowane dane" style="rounded=0;whiteSpace=wrap;html=1;" vertex="1" parent="1">
          <mxGeometry x="560" y="80" width="160" height="80" as="geometry" />
        </mxCell>
        <mxCell id="0tsyYjLDVzbnpsHi3FdE-12" value="" style="endArrow=classic;html=1;rounded=0;exitX=0.5;exitY=0;exitDx=0;exitDy=0;entryX=0.5;entryY=1;entryDx=0;entryDy=0;" edge="1" parent="1" source="0tsyYjLDVzbnpsHi3FdE-1" target="0tsyYjLDVzbnpsHi3FdE-11">
          <mxGeometry width="50" height="50" relative="1" as="geometry">
            <mxPoint x="620" y="230" as="sourcePoint" />
            <mxPoint x="670" y="180" as="targetPoint" />
          </mxGeometry>
        </mxCell>
        <mxCell id="0tsyYjLDVzbnpsHi3FdE-13" value="Zewnętrzna lampa do oświetlenia" style="rounded=0;whiteSpace=wrap;html=1;" vertex="1" parent="1">
          <mxGeometry x="90" y="460" width="140" height="80" as="geometry" />
        </mxCell>
        <mxCell id="0tsyYjLDVzbnpsHi3FdE-14" value="" style="endArrow=classic;html=1;rounded=0;exitX=1;exitY=0.5;exitDx=0;exitDy=0;entryX=0;entryY=0;entryDx=0;entryDy=30;entryPerimeter=0;" edge="1" parent="1" source="0tsyYjLDVzbnpsHi3FdE-13" target="0tsyYjLDVzbnpsHi3FdE-3">
          <mxGeometry width="50" height="50" relative="1" as="geometry">
            <mxPoint x="240" y="510" as="sourcePoint" />
            <mxPoint x="300" y="540" as="targetPoint" />
          </mxGeometry>
        </mxCell>
      </root>
    </mxGraphModel>
  </diagram>
</mxfile>
